<svg xmlns="http://www.w3.org/2000/svg" viewBox="0 0 256 256" role="img" aria-label="Tomur">
  <defs>
    <linearGradient id="tomur-icon-gradient" x1="56" y1="40" x2="210" y2="218" gradientUnits="userSpaceOnUse">
      <stop offset="0" stop-color="#0d6b5f" />
      <stop offset="1" stop-color="#169179" />
    </linearGradient>
  </defs>
  <rect width="256" height="256" rx="81" fill="url(#tomur-icon-gradient)" />
  <g transform="translate(44 44) scale(7)" fill="none" stroke="#fff" stroke-width="2.4" stroke-linecap="round" stroke-linejoin="round">
    <path d="M11.017 2.814a1 1 0 0 1 1.966 0l1.051 5.558a2 2 0 0 0 1.594 1.594l5.558 1.051a1 1 0 0 1 0 1.966l-5.558 1.051a2 2 0 0 0-1.594 1.594l-1.051 5.558a1 1 0 0 1-1.966 0l-1.051-5.558a2 2 0 0 0-1.594-1.594l-5.558-1.051a1 1 0 0 1 0-1.966l5.558-1.051a2 2 0 0 0 1.594-1.594z" />
    <path d="M20 2v4" />
    <path d="M22 4h-4" />
    <circle cx="4" cy="20" r="2" />
  </g>
</svg>
